{
  "accessors": [
    {
      "bufferView": 2,
      "componentType": 5126,
      "count": 560,
      "max": [
        29.784101486206055,
        29.331615447998047,
        87.62999725341797
      ],
      "min": [
        -29.784101486206055,
        -29.331615447998047,
        0.0
      ],
      "type": "VEC3"
    },
    {
      "bufferView": 2,
      "byteOffset": 6720,
      "componentType": 5126,
      "count": 560,
      "max": [
        1.0,
        0.9848078489303589,
        1.0
      ],
      "min": [
        -1.0,
        -0.9848079085350037,
        -1.0
      ],
      "type": "VEC3"
    },
    {
      "bufferView": 3,
      "componentType": 5126,
      "count": 560,
      "max": [
        1.0,
        1.0,
        0.9940535426139832,
        1.0
      ],
      "min": [
        -1.0,
        -1.0,
        -0.9940661191940308,
        1.0
      ],
      "type": "VEC4"
    },
    {
      "bufferView": 1,
      "componentType": 5126,
      "count": 560,
      "max": [
        0.997999906539917,
        0.9952292442321777
      ],
      "min": [
        0.0020000000949949026,
        0.0020000000949949026
      ],
      "type": "VEC2"
    },
    {
      "bufferView": 1,
      "byteOffset": 4480,
      "componentType": 5126,
      "count": 560,
      "max": [
        0.997999906539917,
        0.9952292442321777
      ],
      "min": [
        0.0020000000949949026,
        0.0020000000949949026
      ],
      "type": "VEC2"
    },
    {
      "bufferView": 0,
      "componentType": 5125,
      "count": 2364,
      "type": "SCALAR"
    }
  ],
  "asset": {
    "extras": {
      "author": "charlesmconard (https://sketchfab.com/charlesmconard)",
      "license": "CC-BY-4.0 (http://creativecommons.org/licenses/by/4.0/)",
      "source": "https://sketchfab.com/3d-models/octan-oil-barrel-4e319d92b3ed407bbeeace6e39fecdf6",
      "title": "Octan Oil Barrel"
    },
    "generator": "Sketchfab-12.68.0",
    "version": "2.0"
  },
  "bufferViews": [
    {
      "buffer": 0,
      "byteLength": 9456,
      "name": "floatBufferViews",
      "target": 34963
    },
    {
      "buffer": 0,
      "byteLength": 8960,
      "byteOffset": 9456,
      "byteStride": 8,
      "name": "floatBufferViews",
      "target": 34962
    },
    {
      "buffer": 0,
      "byteLength": 13440,
      "byteOffset": 18416,
      "byteStride": 12,
      "name": "floatBufferViews",
      "target": 34962
    },
    {
      "buffer": 0,
      "byteLength": 8960,
      "byteOffset": 31856,
      "byteStride": 16,
      "name": "floatBufferViews",
      "target": 34962
    }
  ],
  "buffers": [
    {
      "byteLength": 40816,
      "uri": "scene.bin"
    }
  ],
  "images": [
    {
      "uri": "textures/Material_135_baseColor.jpeg"
    },
    {
      "uri": "textures/Material_135_metallicRoughness.png"
    },
    {
      "uri": "textures/Material_135_normal.png"
    }
  ],
  "materials": [
    {
      "doubleSided": true,
      "name": "Material_135",
      "normalTexture": {
        "index": 2
      },
      "occlusionTexture": {
        "index": 1
      },
      "pbrMetallicRoughness": {
        "baseColorTexture": {
          "index": 0
        },
        "metallicRoughnessTexture": {
          "index": 1
        }
      }
    }
  ],
  "meshes": [
    {
      "name": "Barrel_LOD0_Material #135_0",
      "primitives": [
        {
          "attributes": {
            "NORMAL": 1,
            "POSITION": 0,
            "TANGENT": 2,
            "TEXCOORD_0": 3,
            "TEXCOORD_1": 4
          },
          "indices": 5,
          "material": 0,
          "mode": 4
        }
      ]
    }
  ],
  "nodes": [
    {
      "children": [
        1
      ],
      "matrix": [
        1.0,
        0.0,
        0.0,
        0.0,
        0.0,
        2.220446049250313e-16,
        -1.0,
        0.0,
        0.0,
        1.0,
        2.220446049250313e-16,
        0.0,
        0.0,
        0.0,
        0.0,
        1.0
      ],
      "name": "Sketchfab_model"
    },
    {
      "children": [
        2
      ],
      "matrix": [
        1.0,
        0.0,
        0.0,
        0.0,
        0.0,
        0.0,
        1.0,
        0.0,
        0.0,
        -1.0,
        0.0,
        0.0,
        0.0,
        0.0,
        0.0,
        1.0
      ],
      "name": "93adbde859814892a86569b86cba63fc.fbx"
    },
    {
      "children": [
        3
      ],
      "name": "RootNode"
    },
    {
      "children": [
        4
      ],
      "matrix": [
        1.0,
        0.0,
        0.0,
        0.0,
        0.0,
        2.220446049250313e-16,
        -1.0,
        0.0,
        0.0,
        1.0,
        2.220446049250313e-16,
        0.0,
        0.0,
        43.814998626708984,
        0.0,
        1.0
      ],
      "name": "Barrel_LOD0"
    },
    {
      "children": [
        5
      ],
      "matrix": [
        1.0,
        0.0,
        -0.0,
        0.0,
        0.0,
        1.0,
        0.0,
        0.0,
        0.0,
        0.0,
        1.0,
        0.0,
        0.0,
        0.0,
        -43.814998626708984,
        1.0
      ],
      "name": "Object_4"
    },
    {
      "mesh": 0,
      "name": "Barrel_LOD0_Material #135_0"
    }
  ],
  "samplers": [
    {
      "magFilter": 9729,
      "minFilter": 9987,
      "wrapS": 10497,
      "wrapT": 10497
    }
  ],
  "scene": 0,
  "scenes": [
    {
      "name": "Sketchfab_Scene",
      "nodes": [
        0
      ]
    }
  ],
  "textures": [
    {
      "sampler": 0,
      "source": 0
    },
    {
      "sampler": 0,
      "source": 1
    },
    {
      "sampler": 0,
      "source": 2
    }
  ]
}
