{
	"nodes":[{
		"name":"Symétrie.3",
		"children":[1]
	},
	{
		"name":"Cylindre.2",
		"translation":[-35.234214782714847,
		-202.4595489501953,
		-7.582080364227295],
		"rotation":[0.6660366058349609,
		0.3186230957508087,
		0.2610495090484619,
		-0.6218743920326233],
		"scale":[1.0,
		1.0,
		1.0],
		"mesh":0
	},
	{
		"name":"Symétrie.2",
		"children":[3]
	},
	{
		"name":"Cylindre.2",
		"translation":[-32.627357482910159,
		-200.84765625,
		8.518319129943848],
		"rotation":[0.6170367002487183,
		0.0,
		0.0,
		-0.7869343757629395],
		"scale":[1.0,
		1.0,
		1.0],
		"children":[4]
	},
	{
		"name":"Cylindre.2-patte2",
		"mesh":1
	},
	{
		"name":"Symétrie.1",
		"children":[6]
	},
	{
		"name":"Cylindre.2",
		"translation":[-32.627357482910159,
		-200.84765625,
		8.518319129943848],
		"rotation":[0.6170367002487183,
		0.0,
		0.0,
		-0.7869343757629395],
		"scale":[1.0,
		1.0,
		1.0],
		"children":[7]
	},
	{
		"name":"Cylindre.2-patte1",
		"mesh":2
	},
	{
		"name":"Symétrie",
		"children":[9]
	},
	{
		"name":"Cylindre.1",
		"translation":[-32.93610382080078,
		-150.69700622558595,
		-46.026512145996097],
		"rotation":[0.3420201539993286,
		0.0,
		0.0,
		-0.9396926164627075],
		"scale":[1.0,
		1.0,
		1.0],
		"children":[10]
	},
	{
		"name":"Cylindre.1-patte",
		"mesh":3
	},
	{
		"name":"Cylindre",
		"translation":[0.0,
		0.0,
		0.0],
		"rotation":[-0.38905566930770876,
		0.0,
		0.0,
		-0.92121422290802],
		"scale":[1.0,
		1.0,
		1.0],
		"children":[12]
	},
	{
		"name":"Cylindre-corps",
		"mesh":4
	}],
	"asset":{
		"version":"2.0",
		"generator":"Created using the official Cinema 4D glTF Exporter 1.000x284978"
	},
	"images":[{
		"uri":"data:image/jpeg;base64,"
	},
	{
		"uri":"data:image/jpeg;base64,"
	}],
	"scenes":[{
		"nodes":[0,
		2,
		5,
		8,
		11]
	}],
	"materials":[{
		"emissiveFactor":[0.0,
		0.0,
		0.0],
		"pbrMetallicRoughness":{
			"baseColorTexture":{
				"index":0
			},
			"baseColorFactor":[1.0,
			1.0,
			1.0,
			1.0],
			"metallicFactor":1.0,
			"roughnessFactor":1.0
		},
		"alphaMode":"OPAQUE",
		"doubleSided":false,
		"name":"patte2"
	},
	{
		"emissiveFactor":[0.0,
		0.0,
		0.0],
		"pbrMetallicRoughness":{
			"baseColorTexture":{
				"index":1
			},
			"baseColorFactor":[1.0,
			1.0,
			1.0,
			1.0],
			"metallicFactor":1.0,
			"roughnessFactor":1.0
		},
		"alphaMode":"OPAQUE",
		"doubleSided":false,
		"name":"patte1"
	},
	{
		"emissiveFactor":[0.0,
		0.0,
		0.0],
		"pbrMetallicRoughness":{
			"baseColorFactor":[1.0,
			1.0,
			1.0,
			1.0],
			"metallicFactor":1.0,
			"roughnessFactor":1.0
		},
		"alphaMode":"OPAQUE",
		"doubleSided":false,
		"name":"patte"
	},
	{
		"emissiveFactor":[0.0,
		0.0,
		0.0],
		"pbrMetallicRoughness":{
			"baseColorFactor":[1.0,
			1.0,
			1.0,
			1.0],
			"metallicFactor":1.0,
			"roughnessFactor":1.0
		},
		"alphaMode":"OPAQUE",
		"doubleSided":false,
		"name":"corps"
	}],
	"meshes":[{
		"name":"Cylindre.2",
		"primitives":[{
			"attributes":{
				"POSITION":1,
				"NORMAL":2,
				"TEXCOORD_0":3
			},
			"indices":0
		}]
	},
	{
		"name":"Cylindre.2-patte2",
		"primitives":[{
			"attributes":{
				"POSITION":5,
				"NORMAL":6,
				"TEXCOORD_0":7
			},
			"indices":4,
			"material":0
		}]
	},
	{
		"name":"Cylindre.2-patte1",
		"primitives":[{
			"attributes":{
				"POSITION":9,
				"NORMAL":10,
				"TEXCOORD_0":11
			},
			"indices":8,
			"material":1
		}]
	},
	{
		"name":"Cylindre.1-patte",
		"primitives":[{
			"attributes":{
				"POSITION":13,
				"NORMAL":14,
				"TEXCOORD_0":15
			},
			"indices":12,
			"material":2
		}]
	},
	{
		"name":"Cylindre-corps",
		"primitives":[{
			"attributes":{
				"POSITION":17,
				"NORMAL":18,
				"TEXCOORD_0":19
			},
			"indices":16,
			"material":3
		}]
	}],
	"accessors":[{
		"bufferView":0,
		"type":"SCALAR",
		"componentType":5123,
		"count":1680,
		"byteOffset":0,
		"min":[0],
		"max":[863]
	},
	{
		"bufferView":1,
		"type":"VEC3",
		"componentType":5126,
		"count":864,
		"byteOffset":0,
		"min":[-24.619403839111329,
		-8.232151219313383e-16,
		-11.160726547241211],
		"max":[46.55602264404297,
		71.4127426147461,
		12.123552322387696]
	},
	{
		"bufferView":1,
		"type":"VEC3",
		"componentType":5126,
		"count":864,
		"byteOffset":12,
		"min":[-0.9997113347053528,
		-0.9964245557785034,
		-0.9771511554718018],
		"max":[0.9833187460899353,
		0.9928334951400757,
		0.9942318201065064]
	},
	{
		"bufferView":1,
		"type":"VEC2",
		"componentType":5126,
		"count":864,
		"byteOffset":24,
		"min":[0.0,
		0.0],
		"max":[1.0,
		1.0]
	},
	{
		"bufferView":2,
		"type":"SCALAR",
		"componentType":5123,
		"count":1680,
		"byteOffset":0,
		"min":[0],
		"max":[588]
	},
	{
		"bufferView":3,
		"type":"VEC3",
		"componentType":5126,
		"count":589,
		"byteOffset":0,
		"min":[-33.079078674316409,
		8.634696006774903,
		-26.515291213989259],
		"max":[98.33379364013672,
		67.05400085449219,
		6.202263355255127]
	},
	{
		"bufferView":3,
		"type":"VEC3",
		"componentType":5126,
		"count":589,
		"byteOffset":12,
		"min":[-0.9599754214286804,
		-0.8835787773132324,
		-0.9952717423439026],
		"max":[0.9599756002426148,
		0.9513105154037476,
		0.9856462478637695]
	},
	{
		"bufferView":3,
		"type":"VEC2",
		"componentType":5126,
		"count":589,
		"byteOffset":24,
		"min":[0.42554426193237307,
		0.8626034259796143],
		"max":[0.49854034185409548,
		0.8982583284378052]
	},
	{
		"bufferView":4,
		"type":"SCALAR",
		"componentType":5123,
		"count":1680,
		"byteOffset":0,
		"min":[0],
		"max":[582]
	},
	{
		"bufferView":5,
		"type":"VEC3",
		"componentType":5126,
		"count":583,
		"byteOffset":0,
		"min":[-6.626533508300781,
		-57.720191955566409,
		-6.626533508300781],
		"max":[71.8812484741211,
		29.189170837402345,
		16.35367774963379]
	},
	{
		"bufferView":5,
		"type":"VEC3",
		"componentType":5126,
		"count":583,
		"byteOffset":12,
		"min":[-0.9942609667778015,
		-0.9602778553962708,
		-0.9709456562995911],
		"max":[0.9942610263824463,
		0.9422268867492676,
		0.9667019844055176]
	},
	{
		"bufferView":5,
		"type":"VEC2",
		"componentType":5126,
		"count":583,
		"byteOffset":24,
		"min":[0.48203951120376589,
		0.8505483865737915],
		"max":[0.5824086666107178,
		0.8918412923812866]
	},
	{
		"bufferView":6,
		"type":"SCALAR",
		"componentType":5123,
		"count":816,
		"byteOffset":0,
		"min":[0],
		"max":[269]
	},
	{
		"bufferView":7,
		"type":"VEC3",
		"componentType":5126,
		"count":270,
		"byteOffset":0,
		"min":[-10.847369194030762,
		-59.81403350830078,
		-17.09853172302246],
		"max":[76.71957397460938,
		66.93128967285156,
		10.847369194030762]
	},
	{
		"bufferView":7,
		"type":"VEC3",
		"componentType":5126,
		"count":270,
		"byteOffset":12,
		"min":[-0.9999837279319763,
		-0.26411235332489016,
		-0.9212982058525086],
		"max":[0.9999837279319763,
		1.0,
		0.9179415702819824]
	},
	{
		"bufferView":7,
		"type":"VEC2",
		"componentType":5126,
		"count":270,
		"byteOffset":24,
		"min":[0.38876235485076907,
		0.7138197422027588],
		"max":[0.4986005425453186,
		0.8699718713760376]
	},
	{
		"bufferView":8,
		"type":"SCALAR",
		"componentType":5123,
		"count":7200,
		"byteOffset":0,
		"min":[0],
		"max":[1320]
	},
	{
		"bufferView":9,
		"type":"VEC3",
		"componentType":5126,
		"count":1321,
		"byteOffset":0,
		"min":[-92.66680145263672,
		-421.45501708984377,
		-108.57913208007813],
		"max":[92.66680145263672,
		234.5194091796875,
		110.29060363769531]
	},
	{
		"bufferView":9,
		"type":"VEC3",
		"componentType":5126,
		"count":1321,
		"byteOffset":12,
		"min":[-0.9999688267707825,
		-0.9673125743865967,
		-0.9999688267707825],
		"max":[0.9999688267707825,
		1.0,
		0.9943438172340393]
	},
	{
		"bufferView":9,
		"type":"VEC2",
		"componentType":5126,
		"count":1321,
		"byteOffset":24,
		"min":[0.04181303083896637,
		0.15571609139442445],
		"max":[0.7614396810531616,
		0.9162136316299439]
	}],
	"bufferViews":[{
		"buffer":0,
		"byteOffset":0,
		"byteLength":3360,
		"target":34963
	},
	{
		"buffer":0,
		"byteOffset":3360,
		"byteLength":27648,
		"target":34962,
		"byteStride":32
	},
	{
		"buffer":1,
		"byteOffset":0,
		"byteLength":3360,
		"target":34963
	},
	{
		"buffer":1,
		"byteOffset":3360,
		"byteLength":18848,
		"target":34962,
		"byteStride":32
	},
	{
		"buffer":2,
		"byteOffset":0,
		"byteLength":3360,
		"target":34963
	},
	{
		"buffer":2,
		"byteOffset":3360,
		"byteLength":18656,
		"target":34962,
		"byteStride":32
	},
	{
		"buffer":3,
		"byteOffset":0,
		"byteLength":1632,
		"target":34963
	},
	{
		"buffer":3,
		"byteOffset":1632,
		"byteLength":8640,
		"target":34962,
		"byteStride":32
	},
	{
		"buffer":4,
		"byteOffset":0,
		"byteLength":14400,
		"target":34963
	},
	{
		"buffer":4,
		"byteOffset":14400,
		"byteLength":42272,
		"target":34962,
		"byteStride":32
	}],
	"buffers":[{
		"uri":"data:application/octet-stream;base64,",
		"byteLength":31008
	},
	{
		"uri":"data:application/octet-stream;base64,",
		"byteLength":22208
	},
	{
		"uri":"data:application/octet-stream;base64,",
		"byteLength":22016
	},
	{
		"uri":"data:application/octet-stream;base64,",
		"byteLength":10272
	},
	{
		"uri":"data:application/octet-stream;base64,",
		"byteLength":56672
	}],
	"samplers":[{
		"magFilter":9729,
		"minFilter":9729,
		"wrapS":10497,
		"wrapT":10497
	},
	{
		"magFilter":9729,
		"minFilter":9729,
		"wrapS":10497,
		"wrapT":10497
	}],
	"textures":[{
		"sampler":0,
		"source":0
	},
	{
		"sampler":1,
		"source":1
	}]
}